<svg width="626" height="706" viewBox="0 0 626 706" fill="none" xmlns="http://www.w3.org/2000/svg">
<path d="M71.161 0.699995V70H48.193V18.817H27.106V70H4.138V0.699995H71.161ZM202.215 0.699995H225.183V36.736L249.042 0.699995H271.02V70H248.052V34.063L224.292 70H202.215V0.699995ZM455.392 33.667C459.286 35.053 462.256 37.132 464.302 39.904C466.348 42.61 467.371 45.943 467.371 49.903C467.371 56.107 464.896 61.024 459.946 64.654C455.062 68.218 448.132 70 439.156 70H402.13V0.699995H437.275C445.855 0.699995 452.488 2.284 457.174 5.452C461.926 8.62 464.302 13.075 464.302 18.817C464.302 22.117 463.51 25.021 461.926 27.529C460.408 30.037 458.23 32.083 455.392 33.667ZM425.098 27.331H434.998C438.826 27.331 440.74 25.648 440.74 22.282C440.74 18.784 438.826 17.035 434.998 17.035H425.098V27.331ZM438.067 53.665C441.895 53.665 443.809 51.817 443.809 48.121C443.809 44.557 441.895 42.775 438.067 42.775H425.098V53.665H438.067ZM72.448 212.7V282H49.084V256.458H27.502V282H4.138V212.7H27.502V237.252H49.084V212.7H72.448ZM238.813 283.584C231.355 283.584 224.656 282.033 218.716 278.931C212.776 275.829 208.123 271.539 204.757 266.061C201.391 260.517 199.708 254.28 199.708 247.35C199.708 240.42 201.391 234.216 204.757 228.738C208.123 223.194 212.776 218.871 218.716 215.769C224.656 212.667 231.355 211.116 238.813 211.116C246.271 211.116 252.97 212.667 258.91 215.769C264.85 218.871 269.503 223.194 272.869 228.738C276.235 234.216 277.918 240.42 277.918 247.35C277.918 254.28 276.235 260.517 272.869 266.061C269.503 271.539 264.85 275.829 258.91 278.931C252.97 282.033 246.271 283.584 238.813 283.584ZM238.813 264.675C241.717 264.675 244.324 263.982 246.634 262.596C249.01 261.144 250.891 259.131 252.277 256.557C253.663 253.917 254.356 250.848 254.356 247.35C254.356 243.852 253.663 240.816 252.277 238.242C250.891 235.602 249.01 233.589 246.634 232.203C244.324 230.751 241.717 230.025 238.813 230.025C235.909 230.025 233.269 230.751 230.893 232.203C228.583 233.589 226.735 235.602 225.349 238.242C223.963 240.816 223.27 243.852 223.27 247.35C223.27 250.848 223.963 253.917 225.349 256.557C226.735 259.131 228.583 261.144 230.893 262.596C233.269 263.982 235.909 264.675 238.813 264.675ZM405.127 212.7H428.095V248.736L451.954 212.7H473.932V282H450.964V246.063L427.204 282H405.127V212.7ZM439.48 208.74C431.824 208.74 426.313 207.321 422.947 204.483C419.581 201.645 417.898 197.388 417.898 191.712H433.441C433.441 193.956 433.87 195.573 434.728 196.563C435.652 197.553 437.236 198.048 439.48 198.048C441.724 198.048 443.308 197.553 444.232 196.563C445.222 195.573 445.717 193.956 445.717 191.712H461.26C461.26 197.388 459.544 201.645 456.112 204.483C452.68 207.321 447.136 208.74 439.48 208.74ZM67.597 424.7V494H44.629V471.824C40.009 473.21 35.818 473.903 32.056 473.903C21.892 473.903 14.137 471.494 8.791 466.676C3.511 461.858 0.871 454.829 0.871 445.589V424.7H23.839V443.015C23.839 447.239 24.763 450.374 26.611 452.42C28.459 454.4 31.264 455.39 35.026 455.39C38.92 455.39 42.121 454.862 44.629 453.806V424.7H67.597ZM256.256 476.378V494H198.638V424.7H254.969V442.322H221.606V450.44H250.91V467.27H221.606V476.378H256.256ZM443.538 442.817H423.243V494H400.275V442.817H379.98V424.7H443.538V442.817ZM57.4 669.667C61.294 671.053 64.264 673.132 66.31 675.904C68.356 678.61 69.379 681.943 69.379 685.903C69.379 692.107 66.904 697.024 61.954 700.654C57.07 704.218 50.14 706 41.164 706H4.138V636.7H39.283C47.863 636.7 54.496 638.284 59.182 641.452C63.934 644.62 66.31 649.075 66.31 654.817C66.31 658.117 65.518 661.021 63.934 663.529C62.416 666.037 60.238 668.083 57.4 669.667ZM27.106 663.331H37.006C40.834 663.331 42.748 661.648 42.748 658.282C42.748 654.784 40.834 653.035 37.006 653.035H27.106V663.331ZM40.075 689.665C43.903 689.665 45.817 687.817 45.817 684.121C45.817 680.557 43.903 678.775 40.075 678.775H27.106V689.665H40.075ZM254.129 688.378V706H196.511V636.7H252.842V654.322H219.479V662.44H248.783V679.27H219.479V688.378H254.129ZM415.77 636.7C422.172 636.7 427.749 637.756 432.501 639.868C437.253 641.98 440.916 645.016 443.49 648.976C446.064 652.936 447.351 657.556 447.351 662.836C447.351 668.116 446.064 672.736 443.49 676.696C440.916 680.656 437.253 683.692 432.501 685.804C427.749 687.916 422.172 688.972 415.77 688.972H405.771V706H382.407V636.7H415.77ZM414.285 670.954C417.453 670.954 419.829 670.261 421.413 668.875C422.997 667.423 423.789 665.41 423.789 662.836C423.789 660.262 422.997 658.282 421.413 656.896C419.829 655.444 417.453 654.718 414.285 654.718H405.771V670.954H414.285ZM626 654.817H596.201V706H573.233V636.7H626V654.817Z" fill="#FF1879"/>
</svg>
