<svg width="600" height="504" viewBox="0 0 600 504" fill="none" xmlns="http://www.w3.org/2000/svg">
<rect x="333.682" y="90.1577" width="66.2537" height="101.221" transform="rotate(-38.6132 333.682 90.1577)" fill="#FFBE16"/>
<path d="M439.541 127.421L390.22 75.8776L402.851 109.56L413.076 127.421L405.449 157.076L439.541 127.421Z" fill="white"/>
<path d="M403.087 333.907L413.076 127.604L396.235 167.301L403.087 333.907Z" fill="#FFBE16"/>
<path d="M339.296 117.966L353.531 108.958L343.306 96.929L328.871 113.447L331.477 127.002L339.296 124.42V117.966Z" fill="#FFBE16"/>
<path d="M380.524 163.459L375.345 158.902L363.255 165.807L377.452 174.398L395.634 163.459L390.532 156.474L380.524 163.459Z" fill="#FFBE16"/>
<path d="M4.95664 281.604L11.7301 373.893L38.2686 371.589L130.143 382.758L148.196 381.065L159.26 381.646L281.361 390.705L392.812 381.24L425.003 321.644L447.936 317.565L487.645 285.838L494.493 266.121L484.203 240.747L460.741 224.721L440.969 228.965L416.677 228.745L414.958 241.335L410.078 243.72L409.469 255.312L399.125 261.109L387.866 254.177L379.63 260.084L375.555 277.305L388.368 294.886L307.007 324.953L245.168 335.44L154.626 339.135L142.257 333.201L129.335 337.806L45.0321 333.375L13.72 285.763L4.95664 281.604Z" fill="#FF54B0"/>
<path d="M460.195 335.645L419.29 319.758L391.758 381.185L485.267 371.306L572.313 353.69L590.281 323.461L508.721 286.946L486.287 291.578L464.852 307.359L460.915 321.946L467.765 322.306L479.217 315.511L493.748 310.463L544.164 326.321L460.195 335.645Z" fill="#FF54B0"/>
<path d="M318.898 239.457L375.141 295.247L338.592 307.064L288.561 253.713L271.362 178.84L287.056 161.701L320 148.11L336.166 132.053L350.78 125.424L362.511 133.437L368.591 138.241L375.141 145.628L371.229 154.07L355.928 162.997L344.848 157.763L314.234 177.395L318.898 239.457Z" fill="#FF54B0"/>
<path d="M121.501 334.5L149.501 322.09L163.001 334.5L226.919 288.124L238.68 325.727L290.121 322.09L245.634 233.631L225.833 228.364L121.501 334.5Z" fill="#FF54B0"/>
<path d="M96.6015 42.7V84H82.9135V53.497H70.3465V84H56.6585V42.7H96.6015ZM174.705 42.7H188.393V64.176L202.612 42.7H215.71V84H202.022V62.583L187.862 84H174.705V42.7ZM325.587 62.347C327.908 63.173 329.678 64.412 330.897 66.064C332.117 67.6767 332.726 69.663 332.726 72.023C332.726 75.7203 331.251 78.6507 328.301 80.814C325.391 82.938 321.261 84 315.911 84H293.845V42.7H314.79C319.904 42.7 323.857 43.644 326.649 45.532C329.481 47.42 330.897 50.075 330.897 53.497C330.897 55.4637 330.425 57.1943 329.481 58.689C328.577 60.1837 327.279 61.403 325.587 62.347ZM307.533 58.571H313.433C315.715 58.571 316.855 57.568 316.855 55.562C316.855 53.4773 315.715 52.435 313.433 52.435H307.533V58.571ZM315.262 74.265C317.544 74.265 318.684 73.1637 318.684 70.961C318.684 68.837 317.544 67.775 315.262 67.775H307.533V74.265H315.262ZM97.3685 168.7V210H83.4445V194.778H70.5825V210H56.6585V168.7H70.5825V183.332H83.4445V168.7H97.3685ZM196.515 210.944C192.071 210.944 188.078 210.02 184.538 208.171C180.998 206.322 178.225 203.766 176.219 200.501C174.213 197.197 173.21 193.48 173.21 189.35C173.21 185.22 174.213 181.523 176.219 178.258C178.225 174.954 180.998 172.378 184.538 170.529C188.078 168.68 192.071 167.756 196.515 167.756C200.96 167.756 204.952 168.68 208.492 170.529C212.032 172.378 214.805 174.954 216.811 178.258C218.817 181.523 219.82 185.22 219.82 189.35C219.82 193.48 218.817 197.197 216.811 200.501C214.805 203.766 212.032 206.322 208.492 208.171C204.952 210.02 200.96 210.944 196.515 210.944ZM196.515 199.675C198.246 199.675 199.8 199.262 201.176 198.436C202.592 197.571 203.713 196.371 204.539 194.837C205.365 193.264 205.778 191.435 205.778 189.35C205.778 187.265 205.365 185.456 204.539 183.922C203.713 182.349 202.592 181.149 201.176 180.323C199.8 179.458 198.246 179.025 196.515 179.025C194.785 179.025 193.211 179.458 191.795 180.323C190.419 181.149 189.317 182.349 188.491 183.922C187.665 185.456 187.252 187.265 187.252 189.35C187.252 191.435 187.665 193.264 188.491 194.837C189.317 196.371 190.419 197.571 191.795 198.436C193.211 199.262 194.785 199.675 196.515 199.675ZM295.632 168.7H309.32V190.176L323.539 168.7H336.637V210H322.949V188.583L308.789 210H295.632V168.7ZM316.105 166.34C311.542 166.34 308.258 165.494 306.252 163.803C304.246 162.112 303.243 159.575 303.243 156.192H312.506C312.506 157.529 312.761 158.493 313.273 159.083C313.823 159.673 314.767 159.968 316.105 159.968C317.442 159.968 318.386 159.673 318.937 159.083C319.527 158.493 319.822 157.529 319.822 156.192H329.085C329.085 159.575 328.062 162.112 326.017 163.803C323.971 165.494 320.667 166.34 316.105 166.34ZM94.4775 294.7V336H80.7895V322.784C78.0362 323.61 75.5385 324.023 73.2965 324.023C67.2392 324.023 62.6175 322.587 59.4315 319.716C56.2848 316.845 54.7115 312.656 54.7115 307.149V294.7H68.3995V305.615C68.3995 308.132 68.9502 310.001 70.0515 311.22C71.1528 312.4 72.8245 312.99 75.0665 312.99C77.3872 312.99 79.2948 312.675 80.7895 312.046V294.7H94.4775ZM206.911 325.498V336H172.573V294.7H206.144V305.202H186.261V310.04H203.725V320.07H186.261V325.498H206.911ZM318.523 305.497H306.428V336H292.74V305.497H280.645V294.7H318.523V305.497ZM88.4005 440.347C90.7212 441.173 92.4912 442.412 93.7105 444.064C94.9298 445.677 95.5395 447.663 95.5395 450.023C95.5395 453.72 94.0645 456.651 91.1145 458.814C88.2038 460.938 84.0738 462 78.7245 462H56.6585V420.7H77.6035C82.7168 420.7 86.6698 421.644 89.4625 423.532C92.2945 425.42 93.7105 428.075 93.7105 431.497C93.7105 433.464 93.2385 435.194 92.2945 436.689C91.3898 438.184 90.0918 439.403 88.4005 440.347ZM70.3465 436.571H76.2465C78.5278 436.571 79.6685 435.568 79.6685 433.562C79.6685 431.477 78.5278 430.435 76.2465 430.435H70.3465V436.571ZM78.0755 452.265C80.3568 452.265 81.4975 451.164 81.4975 448.961C81.4975 446.837 80.3568 445.775 78.0755 445.775H70.3465V452.265H78.0755ZM205.643 451.498V462H171.305V420.7H204.876V431.202H184.993V436.04H202.457V446.07H184.993V451.498H205.643ZM301.975 420.7C305.79 420.7 309.114 421.329 311.946 422.588C314.778 423.847 316.961 425.656 318.495 428.016C320.029 430.376 320.796 433.129 320.796 436.276C320.796 439.423 320.029 442.176 318.495 444.536C316.961 446.896 314.778 448.705 311.946 449.964C309.114 451.223 305.79 451.852 301.975 451.852H296.016V462H282.092V420.7H301.975ZM301.09 441.114C302.978 441.114 304.394 440.701 305.338 439.875C306.282 439.01 306.754 437.81 306.754 436.276C306.754 434.742 306.282 433.562 305.338 432.736C304.394 431.871 302.978 431.438 301.09 431.438H296.016V441.114H301.09ZM427.263 431.497H409.504V462H395.816V420.7H427.263V431.497Z" fill="black"/>
</svg>
